{
	"asset":{
		"generator":"Khronos glTF Blender I/O v3.6.27",
		"version":"2.0"
	},
	"scene":0,
	"scenes":[
		{
			"name":"Scene",
			"nodes":[
				0
			]
		}
	],
	"nodes":[
		{
			"mesh":0,
			"name":"human.003",
			"rotation":[
				0,
				1,
				0,
				0
			],
			"scale":[
				0.2521970272064209,
				0.421064555644989,
				0.2521970272064209
			],
			"translation":[
				-0.006718180142343044,
				1.0740952491760254,
				0.01646244525909424
			]
		}
	],
	"materials":[
		{
			"doubleSided":true,
			"name":"Material.002",
			"pbrMetallicRoughness":{
				"baseColorTexture":{
					"index":0
				},
				"metallicFactor":0,
				"roughnessFactor":0.5
			}
		}
	],
	"meshes":[
		{
			"name":"Cylinder.006",
			"primitives":[
				{
					"attributes":{
						"COLOR_0":0,
						"POSITION":1,
						"NORMAL":2,
						"TEXCOORD_0":3
					},
					"indices":4,
					"material":0
				}
			]
		}
	],
	"textures":[
		{
			"sampler":0,
			"source":0
		}
	],
	"images":[
		{
			"bufferView":5,
			"mimeType":"image/png",
			"name":"shoka_texture"
		}
	],
	"accessors":[
		{
			"bufferView":0,
			"componentType":5123,
			"count":11740,
			"normalized":true,
			"type":"VEC4"
		},
		{
			"bufferView":1,
			"componentType":5126,
			"count":11740,
			"max":[
				4.186495780944824,
				3.125972032546997,
				1.302948236465454
			],
			"min":[
				-4.186495780944824,
				-2.5590109825134277,
				-1.639129400253296
			],
			"type":"VEC3"
		},
		{
			"bufferView":2,
			"componentType":5126,
			"count":11740,
			"type":"VEC3"
		},
		{
			"bufferView":3,
			"componentType":5126,
			"count":11740,
			"type":"VEC2"
		},
		{
			"bufferView":4,
			"componentType":5123,
			"count":65244,
			"type":"SCALAR"
		}
	],
	"bufferViews":[
		{
			"buffer":0,
			"byteLength":93920,
			"byteOffset":0,
			"target":34962
		},
		{
			"buffer":0,
			"byteLength":140880,
			"byteOffset":93920,
			"target":34962
		},
		{
			"buffer":0,
			"byteLength":140880,
			"byteOffset":234800,
			"target":34962
		},
		{
			"buffer":0,
			"byteLength":93920,
			"byteOffset":375680,
			"target":34962
		},
		{
			"buffer":0,
			"byteLength":130488,
			"byteOffset":469600,
			"target":34963
		},
		{
			"buffer":0,
			"byteLength":292890,
			"byteOffset":600088
		}
	],
	"samplers":[
		{
			"magFilter":9729,
			"minFilter":9987
		}
	],
	"buffers":[
		{
			"byteLength":892980,
			"uri":"data:application/octet-stream;base64,"
		}
	]
}
